<svg xmlns="http://www.w3.org/2000/svg" width="400" height="300" viewBox="0 0 400 300">
  <defs>
    <linearGradient id="bgGradient" x1="0%" y1="0%" x2="100%" y2="100%">
      <stop offset="0%" style="stop-color:#fefce8;stop-opacity:1" />
      <stop offset="100%" style="stop-color:#fef3c7;stop-opacity:1" />
    </linearGradient>
    <linearGradient id="shieldGradient" x1="0%" y1="0%" x2="100%" y2="100%">
      <stop offset="0%" style="stop-color:#10b981;stop-opacity:1" />
      <stop offset="100%" style="stop-color:#059669;stop-opacity:1" />
    </linearGradient>
  </defs>
  
  <!-- Background -->
  <rect width="400" height="300" fill="url(#bgGradient)"/>
  
  <!-- Trust shield in center -->
  <path d="M 200 50 L 170 65 L 170 130 Q 170 150 200 160 Q 230 150 230 130 L 230 65 Z" fill="url(#shieldGradient)"/>
  
  <!-- Checkmark in shield -->
  <path d="M 185 115 L 195 125 L 215 105" stroke="white" stroke-width="4" fill="none" stroke-linecap="round" stroke-linejoin="round"/>
  
  <!-- Building blocks of trust around the shield -->
  
  <!-- Transparency block -->
  <rect x="50" y="80" width="60" height="40" fill="#3b82f6" rx="4" opacity="0.8"/>
  <text x="80" y="95" font-family="Arial, sans-serif" font-size="10" fill="white" text-anchor="middle" font-weight="bold">TRANSPARENCY</text>
  <text x="80" y="108" font-family="Arial, sans-serif" font-size="8" fill="white" text-anchor="middle">Clear Pricing</text>
  
  <!-- Communication block -->
  <rect x="290" y="80" width="60" height="40" fill="#8b5cf6" rx="4" opacity="0.8"/>
  <text x="320" y="95" font-family="Arial, sans-serif" font-size="10" fill="white" text-anchor="middle" font-weight="bold">COMMUNICATION</text>
  <text x="320" y="108" font-family="Arial, sans-serif" font-size="8" fill="white" text-anchor="middle">Open Dialogue</text>
  
  <!-- Reliability block -->
  <rect x="50" y="180" width="60" height="40" fill="#ef4444" rx="4" opacity="0.8"/>
  <text x="80" y="195" font-family="Arial, sans-serif" font-size="10" fill="white" text-anchor="middle" font-weight="bold">RELIABILITY</text>
  <text x="80" y="208" font-family="Arial, sans-serif" font-size="8" fill="white" text-anchor="middle">Consistent Service</text>
  
  <!-- Customer Service block -->
  <rect x="290" y="180" width="60" height="40" fill="#f59e0b" rx="4" opacity="0.8"/>
  <text x="320" y="195" font-family="Arial, sans-serif" font-size="10" fill="white" text-anchor="middle" font-weight="bold">SERVICE</text>
  <text x="320" y="208" font-family="Arial, sans-serif" font-size="8" fill="white" text-anchor="middle">24/7 Support</text>
  
  <!-- Connection lines from blocks to shield -->
  <line x1="110" y1="100" x2="165" y2="105" stroke="#d1d5db" stroke-width="2" stroke-dasharray="5,3"/>
  <line x1="290" y1="100" x2="235" y2="105" stroke="#d1d5db" stroke-width="2" stroke-dasharray="5,3"/>
  <line x1="110" y1="200" x2="165" y2="135" stroke="#d1d5db" stroke-width="2" stroke-dasharray="5,3"/>
  <line x1="290" y1="200" x2="235" y2="135" stroke="#d1d5db" stroke-width="2" stroke-dasharray="5,3"/>
  
  <!-- Customer satisfaction indicators -->
  <circle cx="80" cy="250" r="12" fill="#10b981" opacity="0.2"/>
  <text x="80" y="255" font-family="Arial, sans-serif" font-size="16" fill="#10b981" text-anchor="middle">😊</text>
  
  <circle cx="200" cy="270" r="12" fill="#10b981" opacity="0.2"/>
  <text x="200" y="275" font-family="Arial, sans-serif" font-size="16" fill="#10b981" text-anchor="middle">😊</text>
  
  <circle cx="320" cy="250" r="12" fill="#10b981" opacity="0.2"/>
  <text x="320" y="255" font-family="Arial, sans-serif" font-size="16" fill="#10b981" text-anchor="middle">😊</text>
  
  <!-- Title -->
  <text x="200" y="25" font-family="Arial, sans-serif" font-size="16" font-weight="bold" fill="#1f2937" text-anchor="middle">Building Customer Trust</text>
  
  <!-- Trust rating stars -->
  <g transform="translate(160, 190)">
    <text x="40" y="-5" font-family="Arial, sans-serif" font-size="12" fill="#6b7280" text-anchor="middle">Trust Rating</text>
    <text x="10" y="15" font-family="Arial, sans-serif" font-size="14" fill="#fbbf24" text-anchor="middle">★</text>
    <text x="20" y="15" font-family="Arial, sans-serif" font-size="14" fill="#fbbf24" text-anchor="middle">★</text>
    <text x="30" y="15" font-family="Arial, sans-serif" font-size="14" fill="#fbbf24" text-anchor="middle">★</text>
    <text x="40" y="15" font-family="Arial, sans-serif" font-size="14" fill="#fbbf24" text-anchor="middle">★</text>
    <text x="50" y="15" font-family="Arial, sans-serif" font-size="14" fill="#fbbf24" text-anchor="middle">★</text>
    <text x="65" y="15" font-family="Arial, sans-serif" font-size="10" fill="#6b7280" text-anchor="start">4.8/5</text>
  </g>
  
  <!-- Handshake icon for partnership -->
  <g transform="translate(130, 45)">
    <path d="M 10 20 Q 5 15 10 10 L 20 0 L 30 10 Q 35 15 30 20 L 40 30 Q 35 35 30 30 L 20 40 L 10 30 Q 5 35 10 30 Z" fill="#6b7280" opacity="0.3"/>
  </g>
</svg>